<!DOCTYPE svg PUBLIC "-//W3C//DTD SVG 1.1//EN" "http://www.w3.org/Graphics/SVG/1.1/DTD/svg11.dtd">
<!-- Uploaded to: SVG Repo, www.svgrepo.com, Transformed by: SVG Repo Mixer Tools -->
<svg width="800px" height="800px" viewBox="0 0 24 24" id="quote_mark" data-name="quote mark" xmlns="http://www.w3.org/2000/svg" fill="#000000">
<g id="SVGRepo_bgCarrier" stroke-width="0"/>
<g id="SVGRepo_tracerCarrier" stroke-linecap="round" stroke-linejoin="round"/>
<g id="SVGRepo_iconCarrier"> <rect id="Rectangle_3" data-name="Rectangle 3" width="24" height="24" fill="none"/> <path id="Rectangle" d="M0,3A3,3,0,0,1,3,0H5A3,3,0,0,1,8,3V4c0,6-2.028,10-7,10,4-3.962,3-6,3-6H3A3,3,0,0,1,0,5Z" transform="translate(2 5)" fill="none" stroke="#ab5c5c" stroke-linejoin="round" stroke-miterlimit="10" stroke-width="1.5"/> <path id="Rectangle-2" data-name="Rectangle" d="M0,3A3,3,0,0,1,3,0H5A3,3,0,0,1,8,3V4c0,6-2.028,10-7,10,4-3.962,3-6,3-6H3A3,3,0,0,1,0,5Z" transform="translate(14 5)" fill="none" stroke="#ab5c5c" stroke-linejoin="round" stroke-miterlimit="10" stroke-width="1.5"/> </g>
</svg>